<svg xmlns="http://www.w3.org/2000/svg" viewBox="0 0 400 380" fill="none">
  <!-- Outer Circle with Ikat/Geometric Border -->
  <circle cx="200" cy="190" r="155" stroke="#4d9e97" stroke-width="8" fill="none"/>
  <circle cx="200" cy="190" r="148" stroke="#35817b" stroke-width="1.5" fill="none"/>
  <circle cx="200" cy="190" r="140" stroke="#DAA520" stroke-width="1" fill="none" opacity="0.5"/>
  
  <!-- Inner fill circle -->
  <circle cx="200" cy="190" r="138" fill="#FDF5E6"/>
  
  <!-- Geometric border pattern segments -->
  <g stroke="#4d9e97" stroke-width="2" fill="none" opacity="0.6">
    <path d="M80 150 L100 130 L120 150 L100 170 Z" fill="#4d9e97" fill-opacity="0.1"/>
    <path d="M280 150 L300 130 L320 150 L300 170 Z" fill="#4d9e97" fill-opacity="0.1"/>
    <path d="M120 270 L140 250 L160 270 L140 290 Z" fill="#4d9e97" fill-opacity="0.1"/>
    <path d="M240 270 L260 250 L280 270 L260 290 Z" fill="#4d9e97" fill-opacity="0.1"/>
  </g>
  
  <!-- Interlocking diamond border pattern -->
  <g stroke="#35817b" stroke-width="1.5" fill="none">
    <path d="M130 70 L145 55 L160 70 L145 85 Z"/>
    <path d="M240 70 L255 55 L270 70 L255 85 Z"/>
    <path d="M70 140 L85 125 L100 140 L85 155 Z"/>
    <path d="M300 140 L315 125 L330 140 L315 155 Z"/>
    <path d="M65 200 L80 185 L95 200 L80 215 Z"/>
    <path d="M305 200 L320 185 L335 200 L320 215 Z"/>
    <path d="M90 270 L105 255 L120 270 L105 285 Z"/>
    <path d="M280 270 L295 255 L310 270 L295 285 Z"/>
    <path d="M140 310 L155 295 L170 310 L155 325 Z"/>
    <path d="M230 310 L245 295 L260 310 L245 325 Z"/>
  </g>
  
  <!-- Moorish dome arch -->
  <path d="M155 145 Q155 90 200 65 Q245 90 245 145" stroke="#DAA520" stroke-width="2.5" fill="none"/>
  <path d="M165 140 Q165 100 200 78 Q235 100 235 140" stroke="#A0522D" stroke-width="1.5" fill="none" opacity="0.6"/>
  
  <g fill="#DAA520" opacity="0.7">
    <circle cx="200" cy="95" r="3"/>
    <circle cx="185" cy="110" r="2"/>
    <circle cx="215" cy="110" r="2"/>
  </g>
  
  <!-- Decorative cloud -->
  <path d="M155 155 Q145 145 155 135 Q165 125 175 135 Q185 125 190 135 Q195 145 185 150 Z" fill="#DAA520" opacity="0.5"/>
  
  <!-- Tea Cup -->
  <path d="M145 230 C145 205 255 205 255 230 C255 260 145 260 145 230 Z" fill="#A0522D"/>
  <path d="M150 228 C150 210 250 210 250 228 C250 252 150 252 150 228 Z" fill="#8a4526"/>
  <ellipse cx="200" cy="215" rx="45" ry="8" fill="#A0522D" opacity="0.4"/>
  <path d="M255 220 C275 218 280 230 280 240 C280 250 270 258 255 255" stroke="#A0522D" stroke-width="5" fill="none"/>
  <path d="M255 223 C270 222 275 232 275 240 C275 248 268 254 255 252" stroke="#8a4526" stroke-width="2" fill="none"/>
  
  <g fill="#6f3720" opacity="0.15">
    <circle cx="170" cy="230" r="4"/>
    <circle cx="185" cy="225" r="3"/>
    <circle cx="200" cy="232" r="4"/>
    <circle cx="215" cy="225" r="3"/>
    <circle cx="230" cy="230" r="4"/>
    <circle cx="178" cy="242" r="3"/>
    <circle cx="195" cy="245" r="4"/>
    <circle cx="212" cy="242" r="3"/>
    <circle cx="228" cy="245" r="3"/>
  </g>
  
  <!-- Steam -->
  <g stroke="#DAA520" stroke-width="2.5" fill="none" stroke-linecap="round" opacity="0.7">
    <path d="M190 200 C188 185 192 175 188 160 C184 145 190 135 188 120"/>
    <path d="M210 200 C212 188 208 178 212 165 C216 152 210 140 212 128"/>
  </g>
  <g stroke="#DAA520" stroke-width="1.5" fill="none" stroke-linecap="round" opacity="0.4">
    <path d="M200 202 C198 190 202 180 198 168 C194 156 200 146 198 135"/>
  </g>
  
  <!-- Paisley -->
  <g transform="translate(230, 150) rotate(15)">
    <path d="M0 0 C15 -20 35 -15 30 5 C25 25 5 30 0 15 C-3 8 -3 5 0 0 Z" fill="#A0522D" opacity="0.7"/>
    <path d="M5 2 C12 -10 25 -8 22 5 C19 18 8 20 5 12 Z" fill="#8a4526" opacity="0.5"/>
    <circle cx="12" cy="5" r="2" fill="#DAA520" opacity="0.6"/>
  </g>
  
  <!-- Vine swirls -->
  <g stroke="#A0522D" stroke-width="2" fill="none" opacity="0.5">
    <path d="M130 200 C115 190 110 210 125 220 C140 230 135 250 120 245"/>
    <path d="M270 200 C285 190 290 210 275 220 C260 230 265 250 280 245"/>
  </g>
</svg>
